<svg id="Filled" height="512" viewBox="0 0 512 512" width="512" xmlns="http://www.w3.org/2000/svg"><path d="m480 40v432a16 16 0 0 1 -16 16h-80a16 16 0 0 1 -16-16 16 16 0 0 1 -16 16h-80a16 16 0 0 1 -16-16 16 16 0 0 1 -16 16h-80a15.992 15.992 0 0 1 -16-16 15.992 15.992 0 0 1 -16 16h-80a16 16 0 0 1 -16-16v-432a16 16 0 0 1 16-16h80a16 16 0 0 1 16 16 16 16 0 0 1 16-16h80a16 16 0 0 1 16 16 16 16 0 0 1 16-16h80a16 16 0 0 1 16 16 16 16 0 0 1 16-16h80a16 16 0 0 1 16 16z" fill="#e9eef2"/><g fill="#6a7073"><rect height="304" rx="16" width="48" x="120" y="24"/><rect height="304" rx="16" width="48" x="232" y="24"/><rect height="304" rx="16" width="48" x="344" y="24"/></g><path d="m488 472v-432a24.028 24.028 0 0 0 -24-24h-416a24.028 24.028 0 0 0 -24 24v432a24.028 24.028 0 0 0 24 24h80a23.9 23.9 0 0 0 16-6.131 23.9 23.9 0 0 0 16 6.131h80a23.9 23.9 0 0 0 16-6.131 23.9 23.9 0 0 0 16 6.131h80a23.9 23.9 0 0 0 16-6.131 23.9 23.9 0 0 0 16 6.131h80a24.028 24.028 0 0 0 24-24zm-112-440a8.009 8.009 0 0 1 8 8v272a8.009 8.009 0 0 1 -8 8h-16a8.009 8.009 0 0 1 -8-8v-272a8.009 8.009 0 0 1 8-8zm-112 0a8.009 8.009 0 0 1 8 8v272a8.009 8.009 0 0 1 -8 8h-16a8.009 8.009 0 0 1 -8-8v-272a8.009 8.009 0 0 1 8-8zm-112 0a8.009 8.009 0 0 1 8 8v272a8.009 8.009 0 0 1 -8 8h-16a8.009 8.009 0 0 1 -8-8v-272a8.009 8.009 0 0 1 8-8zm-24 448h-80a8.009 8.009 0 0 1 -8-8v-432a8.009 8.009 0 0 1 8-8h65.376a23.889 23.889 0 0 0 -1.376 8v272a24.027 24.027 0 0 0 24 24v136a8.009 8.009 0 0 1 -8 8zm112 0h-80a8.009 8.009 0 0 1 -8-8v-136a24.027 24.027 0 0 0 24-24v-272a23.889 23.889 0 0 0 -1.376-8h50.752a23.889 23.889 0 0 0 -1.376 8v272a24.027 24.027 0 0 0 24 24v136a8.009 8.009 0 0 1 -8 8zm112 0h-80a8.009 8.009 0 0 1 -8-8v-136a24.027 24.027 0 0 0 24-24v-272a23.889 23.889 0 0 0 -1.376-8h50.752a23.889 23.889 0 0 0 -1.376 8v272a24.027 24.027 0 0 0 24 24v136a8.009 8.009 0 0 1 -8 8zm120-8a8.009 8.009 0 0 1 -8 8h-80a8.009 8.009 0 0 1 -8-8v-136a24.027 24.027 0 0 0 24-24v-272a23.889 23.889 0 0 0 -1.376-8h65.376a8.009 8.009 0 0 1 8 8z"/></svg>